{
	"asset":{
		"generator":"Khronos glTF Blender I/O v5.0.21",
		"version":"2.0"
	},
	"extensionsUsed":[
		"KHR_materials_emissive_strength"
	],
	"scene":0,
	"scenes":[
		{
			"name":"Scene",
			"nodes":[
				6
			]
		}
	],
	"nodes":[
		{
			"mesh":0,
			"name":"Cube.003_WINGS_0"
		},
		{
			"children":[
				0
			],
			"name":"Cube.003"
		},
		{
			"mesh":1,
			"name":"Cube.010_BASE_0"
		},
		{
			"children":[
				1,
				2
			],
			"name":"Cube.010",
			"rotation":[
				-0.70710688829422,
				0,
				0,
				0.7071066498756409
			],
			"scale":[
				100,
				99.99999237060547,
				99.99999237060547
			]
		},
		{
			"children":[
				3
			],
			"name":"RootNode"
		},
		{
			"children":[
				4
			],
			"name":"3c665eb1d6664743b42a5a98d3bc7431.fbx",
			"rotation":[
				0.70710688829422,
				0,
				0,
				0.7071066498756409
			],
			"scale":[
				0.009999999776482582,
				0.010000000707805157,
				0.010000000707805157
			]
		},
		{
			"children":[
				5
			],
			"name":"light_figher",
			"rotation":[
				-0.70710688829422,
				0,
				0,
				0.7071066498756409
			]
		}
	],
	"materials":[
		{
			"doubleSided":true,
			"emissiveFactor":[
				1,
				1,
				1
			],
			"emissiveTexture":{
				"index":0
			},
			"extensions":{
				"KHR_materials_emissive_strength":{
					"emissiveStrength":7.162331581115723
				}
			},
			"name":"WINGS",
			"normalTexture":{
				"index":1
			},
			"occlusionTexture":{
				"index":2
			},
			"pbrMetallicRoughness":{
				"baseColorTexture":{
					"index":3
				},
				"metallicRoughnessTexture":{
					"index":2
				},
				"roughnessFactor":0.735122799873352
			}
		},
		{
			"doubleSided":true,
			"emissiveFactor":[
				1,
				1,
				1
			],
			"emissiveTexture":{
				"index":4
			},
			"extensions":{
				"KHR_materials_emissive_strength":{
					"emissiveStrength":1.9991562366485596
				}
			},
			"name":"BASE",
			"normalTexture":{
				"index":5
			},
			"occlusionTexture":{
				"index":6
			},
			"pbrMetallicRoughness":{
				"baseColorTexture":{
					"index":7
				},
				"metallicRoughnessTexture":{
					"index":6
				},
				"roughnessFactor":0.8484607934951782
			}
		}
	],
	"meshes":[
		{
			"name":"Cube.003_WINGS_0",
			"primitives":[
				{
					"attributes":{
						"POSITION":0,
						"NORMAL":1,
						"TEXCOORD_0":2,
						"TEXCOORD_1":3
					},
					"indices":4,
					"material":0
				}
			]
		},
		{
			"name":"Cube.010_BASE_0",
			"primitives":[
				{
					"attributes":{
						"POSITION":5,
						"NORMAL":6,
						"TEXCOORD_0":7,
						"TEXCOORD_1":8
					},
					"indices":9,
					"material":1
				}
			]
		}
	],
	"textures":[
		{
			"sampler":0,
			"source":0
		},
		{
			"sampler":0,
			"source":1
		},
		{
			"sampler":0,
			"source":2
		},
		{
			"sampler":0,
			"source":3
		},
		{
			"sampler":0,
			"source":4
		},
		{
			"sampler":0,
			"source":5
		},
		{
			"sampler":0,
			"source":6
		},
		{
			"sampler":0,
			"source":7
		}
	],
	"images":[
		{
			"mimeType":"image/png",
			"name":"WINGS_emissive",
			"uri":"Textures/WINGS_emissive.png"
		},
		{
			"mimeType":"image/png",
			"name":"WINGS_normal",
			"uri":"Textures/WINGS_normal.png"
		},
		{
			"mimeType":"image/png",
			"name":"WINGS_metallicRoughness",
			"uri":"Textures/WINGS_metallicRoughness.png"
		},
		{
			"mimeType":"image/png",
			"name":"WINGS_baseColor",
			"uri":"Textures/WINGS_baseColor.png"
		},
		{
			"mimeType":"image/png",
			"name":"BASE_emissive",
			"uri":"Textures/BASE_emissive.png"
		},
		{
			"mimeType":"image/png",
			"name":"BASE_normal",
			"uri":"Textures/BASE_normal.png"
		},
		{
			"mimeType":"image/png",
			"name":"BASE_metallicRoughness",
			"uri":"Textures/BASE_metallicRoughness.png"
		},
		{
			"mimeType":"image/png",
			"name":"BASE_baseColor",
			"uri":"Textures/BASE_baseColor.png"
		}
	],
	"accessors":[
		{
			"bufferView":0,
			"componentType":5126,
			"count":42064,
			"max":[
				6.136865139007568,
				4.341372013092041,
				2.1901628971099854
			],
			"min":[
				-6.136865139007568,
				-5.207426071166992,
				0.39320361614227295
			],
			"type":"VEC3"
		},
		{
			"bufferView":1,
			"componentType":5126,
			"count":42064,
			"type":"VEC3"
		},
		{
			"bufferView":2,
			"componentType":5126,
			"count":42064,
			"type":"VEC2"
		},
		{
			"bufferView":3,
			"componentType":5126,
			"count":42064,
			"type":"VEC2"
		},
		{
			"bufferView":4,
			"componentType":5123,
			"count":135708,
			"type":"SCALAR"
		},
		{
			"bufferView":5,
			"componentType":5126,
			"count":26622,
			"max":[
				2.063183546066284,
				5.570804119110107,
				2.786438465118408
			],
			"min":[
				-2.05195689201355,
				-4.6609978675842285,
				-0.0029248103965073824
			],
			"type":"VEC3"
		},
		{
			"bufferView":6,
			"componentType":5126,
			"count":26622,
			"type":"VEC3"
		},
		{
			"bufferView":7,
			"componentType":5126,
			"count":26622,
			"type":"VEC2"
		},
		{
			"bufferView":8,
			"componentType":5126,
			"count":26622,
			"type":"VEC2"
		},
		{
			"bufferView":9,
			"componentType":5123,
			"count":82323,
			"type":"SCALAR"
		}
	],
	"bufferViews":[
		{
			"buffer":0,
			"byteLength":504768,
			"byteOffset":0,
			"target":34962
		},
		{
			"buffer":0,
			"byteLength":504768,
			"byteOffset":504768,
			"target":34962
		},
		{
			"buffer":0,
			"byteLength":336512,
			"byteOffset":1009536,
			"target":34962
		},
		{
			"buffer":0,
			"byteLength":336512,
			"byteOffset":1346048,
			"target":34962
		},
		{
			"buffer":0,
			"byteLength":271416,
			"byteOffset":1682560,
			"target":34963
		},
		{
			"buffer":0,
			"byteLength":319464,
			"byteOffset":1953976,
			"target":34962
		},
		{
			"buffer":0,
			"byteLength":319464,
			"byteOffset":2273440,
			"target":34962
		},
		{
			"buffer":0,
			"byteLength":212976,
			"byteOffset":2592904,
			"target":34962
		},
		{
			"buffer":0,
			"byteLength":212976,
			"byteOffset":2805880,
			"target":34962
		},
		{
			"buffer":0,
			"byteLength":164646,
			"byteOffset":3018856,
			"target":34963
		}
	],
	"samplers":[
		{
			"magFilter":9729,
			"minFilter":9987
		}
	],
	"buffers":[
		{
			"byteLength":3183504,
			"uri":"light_fighter.bin"
		}
	]
}
