{
	"asset":{
		"generator":"Khronos glTF Blender I/O v5.0.21",
		"version":"2.0"
	},
	"extensionsUsed":[
		"KHR_materials_emissive_strength"
	],
	"scene":0,
	"scenes":[
		{
			"name":"Scene",
			"nodes":[
				14
			]
		}
	],
	"nodes":[
		{
			"mesh":0,
			"name":"Armor_Spaceship_1_0"
		},
		{
			"children":[
				0
			],
			"name":"Armor",
			"rotation":[
				-0.70710688829422,
				0,
				0,
				0.7071066498756409
			],
			"scale":[
				100,
				99.99999237060547,
				99.99999237060547
			]
		},
		{
			"mesh":1,
			"name":"Guns_Spaceship_1_0"
		},
		{
			"children":[
				2
			],
			"name":"Guns",
			"rotation":[
				-0.70710688829422,
				0,
				0,
				0.7071066498756409
			],
			"scale":[
				100,
				99.99999237060547,
				99.99999237060547
			]
		},
		{
			"mesh":2,
			"name":"Hatch_Spaceship_1_0"
		},
		{
			"children":[
				4
			],
			"name":"Hatch",
			"rotation":[
				-0.70710688829422,
				0,
				0,
				0.7071066498756409
			],
			"scale":[
				100,
				99.99999237060547,
				99.99999237060547
			]
		},
		{
			"mesh":3,
			"name":"Ship_Body_Spaceship_1_0"
		},
		{
			"children":[
				6
			],
			"name":"Ship_Body",
			"rotation":[
				-0.70710688829422,
				0,
				0,
				0.7071066498756409
			],
			"scale":[
				100,
				99.99999237060547,
				99.99999237060547
			]
		},
		{
			"mesh":4,
			"name":"Thruster Energy_Thruster_0"
		},
		{
			"children":[
				8
			],
			"name":"Thruster Energy",
			"rotation":[
				-0.70710688829422,
				0,
				0,
				0.7071066498756409
			],
			"scale":[
				98.35277557373047,
				179.44696044921875,
				98.3527603149414
			],
			"translation":[
				238.3963623046875,
				21.066146850585938,
				-925.7988891601562
			]
		},
		{
			"mesh":5,
			"name":"Thrusters_Spaceship_1_0"
		},
		{
			"children":[
				10
			],
			"name":"Thrusters",
			"rotation":[
				-0.70710688829422,
				0,
				0,
				0.7071066498756409
			],
			"scale":[
				100,
				99.99999237060547,
				99.99999237060547
			]
		},
		{
			"children":[
				1,
				3,
				5,
				7,
				9,
				11
			],
			"name":"RootNode"
		},
		{
			"children":[
				12
			],
			"name":"f603b329e98b4b9c96093944d6caf042.fbx",
			"rotation":[
				0.70710688829422,
				0,
				0,
				0.7071066498756409
			],
			"scale":[
				0.009999999776482582,
				0.010000000707805157,
				0.010000000707805157
			]
		},
		{
			"children":[
				13
			],
			"name":"drone_fighter",
			"rotation":[
				-0.70710688829422,
				0,
				0,
				0.7071066498756409
			]
		}
	],
	"materials":[
		{
			"doubleSided":true,
			"emissiveFactor":[
				1,
				1,
				1
			],
			"emissiveTexture":{
				"index":0
			},
			"extensions":{
				"KHR_materials_emissive_strength":{
					"emissiveStrength":2.557077646255493
				}
			},
			"name":"Spaceship_1",
			"normalTexture":{
				"index":1
			},
			"pbrMetallicRoughness":{
				"baseColorTexture":{
					"index":2
				},
				"metallicRoughnessTexture":{
					"index":3
				}
			}
		},
		{
			"alphaMode":"BLEND",
			"doubleSided":true,
			"emissiveFactor":[
				1,
				1,
				1
			],
			"emissiveTexture":{
				"index":4
			},
			"extensions":{
				"KHR_materials_emissive_strength":{
					"emissiveStrength":3.83561635017395
				}
			},
			"name":"Thruster",
			"pbrMetallicRoughness":{
				"baseColorTexture":{
					"index":5
				},
				"metallicFactor":0,
				"metallicRoughnessTexture":{
					"index":6
				}
			}
		}
	],
	"meshes":[
		{
			"name":"Armor_Spaceship_1_0",
			"primitives":[
				{
					"attributes":{
						"POSITION":0,
						"NORMAL":1,
						"TEXCOORD_0":2,
						"TEXCOORD_1":3,
						"TEXCOORD_2":4,
						"TEXCOORD_3":5
					},
					"indices":6,
					"material":0
				}
			]
		},
		{
			"name":"Guns_Spaceship_1_0",
			"primitives":[
				{
					"attributes":{
						"POSITION":7,
						"NORMAL":8,
						"TEXCOORD_0":9,
						"TEXCOORD_1":10,
						"TEXCOORD_2":11,
						"TEXCOORD_3":12
					},
					"indices":13,
					"material":0
				}
			]
		},
		{
			"name":"Hatch_Spaceship_1_0",
			"primitives":[
				{
					"attributes":{
						"POSITION":14,
						"NORMAL":15,
						"TEXCOORD_0":16,
						"TEXCOORD_1":17,
						"TEXCOORD_2":18,
						"TEXCOORD_3":19
					},
					"indices":20,
					"material":0
				}
			]
		},
		{
			"name":"Ship_Body_Spaceship_1_0",
			"primitives":[
				{
					"attributes":{
						"POSITION":21,
						"NORMAL":22,
						"TEXCOORD_0":23,
						"TEXCOORD_1":24,
						"TEXCOORD_2":25,
						"TEXCOORD_3":26
					},
					"indices":27,
					"material":0
				}
			]
		},
		{
			"name":"Thruster Energy_Thruster_0",
			"primitives":[
				{
					"attributes":{
						"POSITION":28,
						"NORMAL":29,
						"TEXCOORD_0":30,
						"TEXCOORD_1":31,
						"TEXCOORD_2":32
					},
					"indices":33,
					"material":1
				}
			]
		},
		{
			"name":"Thrusters_Spaceship_1_0",
			"primitives":[
				{
					"attributes":{
						"POSITION":34,
						"NORMAL":35,
						"TEXCOORD_0":36,
						"TEXCOORD_1":37,
						"TEXCOORD_2":38,
						"TEXCOORD_3":39
					},
					"indices":40,
					"material":0
				}
			]
		}
	],
	"textures":[
		{
			"sampler":0,
			"source":0
		},
		{
			"sampler":0,
			"source":1
		},
		{
			"sampler":0,
			"source":2
		},
		{
			"sampler":0,
			"source":3
		},
		{
			"sampler":0,
			"source":4
		},
		{
			"sampler":0,
			"source":5
		},
		{
			"sampler":0,
			"source":6
		}
	],
	"images":[
		{
			"mimeType":"image/png",
			"name":"Image_2",
			"uri":"textures/Image_2.png"
		},
		{
			"mimeType":"image/png",
			"name":"Image_3",
			"uri":"textures/Image_3.png"
		},
		{
			"mimeType":"image/png",
			"name":"Image_0",
			"uri":"textures/Image_0.png"
		},
		{
			"mimeType":"image/png",
			"name":"Image_1",
			"uri":"textures/Image_1.png"
		},
		{
			"mimeType":"image/png",
			"name":"Image_6",
			"uri":"textures/Image_6.png"
		},
		{
			"mimeType":"image/png",
			"name":"Image_4",
			"uri":"textures/Image_4.png"
		},
		{
			"mimeType":"image/png",
			"name":"Image_5",
			"uri":"textures/Image_5.png"
		}
	],
	"accessors":[
		{
			"bufferView":0,
			"componentType":5126,
			"count":5651,
			"max":[
				9.162080764770508,
				5.485622882843018,
				0.7354832291603088
			],
			"min":[
				-9.162079811096191,
				-5.489907264709473,
				-2.5461442470550537
			],
			"type":"VEC3"
		},
		{
			"bufferView":1,
			"componentType":5126,
			"count":5651,
			"type":"VEC3"
		},
		{
			"bufferView":2,
			"componentType":5126,
			"count":5651,
			"type":"VEC2"
		},
		{
			"bufferView":3,
			"componentType":5126,
			"count":5651,
			"type":"VEC2"
		},
		{
			"bufferView":4,
			"componentType":5126,
			"count":5651,
			"type":"VEC2"
		},
		{
			"bufferView":5,
			"componentType":5126,
			"count":5651,
			"type":"VEC2"
		},
		{
			"bufferView":6,
			"componentType":5123,
			"count":28080,
			"type":"SCALAR"
		},
		{
			"bufferView":7,
			"componentType":5126,
			"count":5298,
			"max":[
				3.1188507080078125,
				2.5318825244903564,
				-0.7216284275054932
			],
			"min":[
				-3.1188507080078125,
				-3.129164218902588,
				-1.69398033618927
			],
			"type":"VEC3"
		},
		{
			"bufferView":8,
			"componentType":5126,
			"count":5298,
			"type":"VEC3"
		},
		{
			"bufferView":9,
			"componentType":5126,
			"count":5298,
			"type":"VEC2"
		},
		{
			"bufferView":10,
			"componentType":5126,
			"count":5298,
			"type":"VEC2"
		},
		{
			"bufferView":11,
			"componentType":5126,
			"count":5298,
			"type":"VEC2"
		},
		{
			"bufferView":12,
			"componentType":5126,
			"count":5298,
			"type":"VEC2"
		},
		{
			"bufferView":13,
			"componentType":5123,
			"count":13896,
			"type":"SCALAR"
		},
		{
			"bufferView":14,
			"componentType":5126,
			"count":1194,
			"max":[
				1.2990760803222656,
				7.885876178741455,
				-0.7985262870788574
			],
			"min":[
				-1.1919653415679932,
				3.226816415786743,
				-1.1597309112548828
			],
			"type":"VEC3"
		},
		{
			"bufferView":15,
			"componentType":5126,
			"count":1194,
			"type":"VEC3"
		},
		{
			"bufferView":16,
			"componentType":5126,
			"count":1194,
			"type":"VEC2"
		},
		{
			"bufferView":17,
			"componentType":5126,
			"count":1194,
			"type":"VEC2"
		},
		{
			"bufferView":18,
			"componentType":5126,
			"count":1194,
			"type":"VEC2"
		},
		{
			"bufferView":19,
			"componentType":5126,
			"count":1194,
			"type":"VEC2"
		},
		{
			"bufferView":20,
			"componentType":5123,
			"count":6288,
			"type":"SCALAR"
		},
		{
			"bufferView":21,
			"componentType":5126,
			"count":15902,
			"max":[
				12.183225631713867,
				11.196264266967773,
				1.4500128030776978
			],
			"min":[
				-12.183225631713867,
				-6.148282051086426,
				-4.141800403594971
			],
			"type":"VEC3"
		},
		{
			"bufferView":22,
			"componentType":5126,
			"count":15902,
			"type":"VEC3"
		},
		{
			"bufferView":23,
			"componentType":5126,
			"count":15902,
			"type":"VEC2"
		},
		{
			"bufferView":24,
			"componentType":5126,
			"count":15902,
			"type":"VEC2"
		},
		{
			"bufferView":25,
			"componentType":5126,
			"count":15902,
			"type":"VEC2"
		},
		{
			"bufferView":26,
			"componentType":5126,
			"count":15902,
			"type":"VEC2"
		},
		{
			"bufferView":27,
			"componentType":5123,
			"count":87264,
			"type":"SCALAR"
		},
		{
			"bufferView":28,
			"componentType":5126,
			"count":396,
			"max":[
				2.375683307647705,
				0.8207936882972717,
				0.15726085007190704
			],
			"min":[
				-7.223464488983154,
				-0.7180539965629578,
				-0.5051801204681396
			],
			"type":"VEC3"
		},
		{
			"bufferView":29,
			"componentType":5126,
			"count":396,
			"type":"VEC3"
		},
		{
			"bufferView":30,
			"componentType":5126,
			"count":396,
			"type":"VEC2"
		},
		{
			"bufferView":31,
			"componentType":5126,
			"count":396,
			"type":"VEC2"
		},
		{
			"bufferView":32,
			"componentType":5126,
			"count":396,
			"type":"VEC2"
		},
		{
			"bufferView":33,
			"componentType":5123,
			"count":1536,
			"type":"SCALAR"
		},
		{
			"bufferView":34,
			"componentType":5126,
			"count":96,
			"max":[
				4.7307562828063965,
				8.697624206542969,
				0.47388264536857605
			],
			"min":[
				-4.7307562828063965,
				8.29592227935791,
				-0.3379081189632416
			],
			"type":"VEC3"
		},
		{
			"bufferView":35,
			"componentType":5126,
			"count":96,
			"type":"VEC3"
		},
		{
			"bufferView":36,
			"componentType":5126,
			"count":96,
			"type":"VEC2"
		},
		{
			"bufferView":37,
			"componentType":5126,
			"count":96,
			"type":"VEC2"
		},
		{
			"bufferView":38,
			"componentType":5126,
			"count":96,
			"type":"VEC2"
		},
		{
			"bufferView":39,
			"componentType":5126,
			"count":96,
			"type":"VEC2"
		},
		{
			"bufferView":40,
			"componentType":5123,
			"count":240,
			"type":"SCALAR"
		}
	],
	"bufferViews":[
		{
			"buffer":0,
			"byteLength":67812,
			"byteOffset":0,
			"target":34962
		},
		{
			"buffer":0,
			"byteLength":67812,
			"byteOffset":67812,
			"target":34962
		},
		{
			"buffer":0,
			"byteLength":45208,
			"byteOffset":135624,
			"target":34962
		},
		{
			"buffer":0,
			"byteLength":45208,
			"byteOffset":180832,
			"target":34962
		},
		{
			"buffer":0,
			"byteLength":45208,
			"byteOffset":226040,
			"target":34962
		},
		{
			"buffer":0,
			"byteLength":45208,
			"byteOffset":271248,
			"target":34962
		},
		{
			"buffer":0,
			"byteLength":56160,
			"byteOffset":316456,
			"target":34963
		},
		{
			"buffer":0,
			"byteLength":63576,
			"byteOffset":372616,
			"target":34962
		},
		{
			"buffer":0,
			"byteLength":63576,
			"byteOffset":436192,
			"target":34962
		},
		{
			"buffer":0,
			"byteLength":42384,
			"byteOffset":499768,
			"target":34962
		},
		{
			"buffer":0,
			"byteLength":42384,
			"byteOffset":542152,
			"target":34962
		},
		{
			"buffer":0,
			"byteLength":42384,
			"byteOffset":584536,
			"target":34962
		},
		{
			"buffer":0,
			"byteLength":42384,
			"byteOffset":626920,
			"target":34962
		},
		{
			"buffer":0,
			"byteLength":27792,
			"byteOffset":669304,
			"target":34963
		},
		{
			"buffer":0,
			"byteLength":14328,
			"byteOffset":697096,
			"target":34962
		},
		{
			"buffer":0,
			"byteLength":14328,
			"byteOffset":711424,
			"target":34962
		},
		{
			"buffer":0,
			"byteLength":9552,
			"byteOffset":725752,
			"target":34962
		},
		{
			"buffer":0,
			"byteLength":9552,
			"byteOffset":735304,
			"target":34962
		},
		{
			"buffer":0,
			"byteLength":9552,
			"byteOffset":744856,
			"target":34962
		},
		{
			"buffer":0,
			"byteLength":9552,
			"byteOffset":754408,
			"target":34962
		},
		{
			"buffer":0,
			"byteLength":12576,
			"byteOffset":763960,
			"target":34963
		},
		{
			"buffer":0,
			"byteLength":190824,
			"byteOffset":776536,
			"target":34962
		},
		{
			"buffer":0,
			"byteLength":190824,
			"byteOffset":967360,
			"target":34962
		},
		{
			"buffer":0,
			"byteLength":127216,
			"byteOffset":1158184,
			"target":34962
		},
		{
			"buffer":0,
			"byteLength":127216,
			"byteOffset":1285400,
			"target":34962
		},
		{
			"buffer":0,
			"byteLength":127216,
			"byteOffset":1412616,
			"target":34962
		},
		{
			"buffer":0,
			"byteLength":127216,
			"byteOffset":1539832,
			"target":34962
		},
		{
			"buffer":0,
			"byteLength":174528,
			"byteOffset":1667048,
			"target":34963
		},
		{
			"buffer":0,
			"byteLength":4752,
			"byteOffset":1841576,
			"target":34962
		},
		{
			"buffer":0,
			"byteLength":4752,
			"byteOffset":1846328,
			"target":34962
		},
		{
			"buffer":0,
			"byteLength":3168,
			"byteOffset":1851080,
			"target":34962
		},
		{
			"buffer":0,
			"byteLength":3168,
			"byteOffset":1854248,
			"target":34962
		},
		{
			"buffer":0,
			"byteLength":3168,
			"byteOffset":1857416,
			"target":34962
		},
		{
			"buffer":0,
			"byteLength":3072,
			"byteOffset":1860584,
			"target":34963
		},
		{
			"buffer":0,
			"byteLength":1152,
			"byteOffset":1863656,
			"target":34962
		},
		{
			"buffer":0,
			"byteLength":1152,
			"byteOffset":1864808,
			"target":34962
		},
		{
			"buffer":0,
			"byteLength":768,
			"byteOffset":1865960,
			"target":34962
		},
		{
			"buffer":0,
			"byteLength":768,
			"byteOffset":1866728,
			"target":34962
		},
		{
			"buffer":0,
			"byteLength":768,
			"byteOffset":1867496,
			"target":34962
		},
		{
			"buffer":0,
			"byteLength":768,
			"byteOffset":1868264,
			"target":34962
		},
		{
			"buffer":0,
			"byteLength":480,
			"byteOffset":1869032,
			"target":34963
		}
	],
	"samplers":[
		{
			"magFilter":9729,
			"minFilter":9987
		}
	],
	"buffers":[
		{
			"byteLength":1869512,
			"uri":"drone_fighter.bin"
		}
	]
}
