{
	"asset":{
		"generator":"Khronos glTF Blender I/O v5.0.21",
		"version":"2.0"
	},
	"scene":0,
	"scenes":[
		{
			"name":"Scene",
			"nodes":[
				16
			]
		}
	],
	"nodes":[
		{
			"mesh":0,
			"name":"Object_4"
		},
		{
			"children":[
				0
			],
			"name":"Cockpit_0"
		},
		{
			"mesh":1,
			"name":"Object_14"
		},
		{
			"children":[
				2
			],
			"name":"CockpitLid_5"
		},
		{
			"mesh":2,
			"name":"Object_12"
		},
		{
			"children":[
				4
			],
			"name":"CockpitWindow_4"
		},
		{
			"mesh":3,
			"name":"Object_10"
		},
		{
			"children":[
				6
			],
			"name":"Struts_X_3"
		},
		{
			"mesh":4,
			"name":"Object_8"
		},
		{
			"children":[
				8
			],
			"name":"Struts_XYZ_2"
		},
		{
			"mesh":5,
			"name":"Object_6"
		},
		{
			"children":[
				10
			],
			"name":"Wings_1",
			"translation":[
				2.9696993827819824,
				0,
				0
			]
		},
		{
			"mesh":6,
			"name":"Object_16"
		},
		{
			"children":[
				12
			],
			"name":"WingsGreeble_6",
			"translation":[
				2.9696993827819824,
				0,
				0
			]
		},
		{
			"children":[
				1,
				3,
				5,
				7,
				9,
				11,
				13
			],
			"name":"GLTF_SceneRootNode",
			"rotation":[
				0.70710688829422,
				0,
				0,
				0.7071066498756409
			]
		},
		{
			"children":[
				14
			],
			"name":"root"
		},
		{
			"children":[
				15
			],
			"name":"Sketchfab_model",
			"rotation":[
				-0.70710688829422,
				0,
				0,
				0.7071066498756409
			]
		}
	],
	"materials":[
		{
			"doubleSided":true,
			"emissiveFactor":[
				1,
				1,
				1
			],
			"emissiveTexture":{
				"index":0
			},
			"name":"SW_TIE-Fighter",
			"pbrMetallicRoughness":{
				"baseColorTexture":{
					"index":1
				},
				"metallicFactor":0.5,
				"metallicRoughnessTexture":{
					"index":2
				}
			}
		}
	],
	"meshes":[
		{
			"name":"Object_0",
			"primitives":[
				{
					"attributes":{
						"POSITION":0,
						"NORMAL":1,
						"TEXCOORD_0":2,
						"TEXCOORD_1":3,
						"TEXCOORD_2":4,
						"TEXCOORD_3":5,
						"TEXCOORD_4":6
					},
					"indices":7,
					"material":0
				}
			]
		},
		{
			"name":"Object_5",
			"primitives":[
				{
					"attributes":{
						"POSITION":8,
						"NORMAL":9,
						"TEXCOORD_0":10,
						"TEXCOORD_1":11,
						"TEXCOORD_2":12,
						"TEXCOORD_3":13,
						"TEXCOORD_4":14
					},
					"indices":15,
					"material":0
				}
			]
		},
		{
			"name":"Object_4",
			"primitives":[
				{
					"attributes":{
						"POSITION":16,
						"NORMAL":17,
						"TEXCOORD_0":18,
						"TEXCOORD_1":19,
						"TEXCOORD_2":20,
						"TEXCOORD_3":21,
						"TEXCOORD_4":22
					},
					"indices":23,
					"material":0
				}
			]
		},
		{
			"name":"Object_3",
			"primitives":[
				{
					"attributes":{
						"POSITION":24,
						"NORMAL":25,
						"TEXCOORD_0":26,
						"TEXCOORD_1":27,
						"TEXCOORD_2":28,
						"TEXCOORD_3":29,
						"TEXCOORD_4":30
					},
					"indices":31,
					"material":0
				}
			]
		},
		{
			"name":"Object_2",
			"primitives":[
				{
					"attributes":{
						"POSITION":32,
						"NORMAL":33,
						"TEXCOORD_0":34,
						"TEXCOORD_1":35,
						"TEXCOORD_2":36,
						"TEXCOORD_3":37,
						"TEXCOORD_4":38
					},
					"indices":39,
					"material":0
				}
			]
		},
		{
			"name":"Object_1",
			"primitives":[
				{
					"attributes":{
						"POSITION":40,
						"NORMAL":41,
						"TEXCOORD_0":42,
						"TEXCOORD_1":43,
						"TEXCOORD_2":44,
						"TEXCOORD_3":45,
						"TEXCOORD_4":46
					},
					"indices":47,
					"material":0
				}
			]
		},
		{
			"name":"Object_6",
			"primitives":[
				{
					"attributes":{
						"POSITION":48,
						"NORMAL":49,
						"TEXCOORD_0":50,
						"TEXCOORD_1":51,
						"TEXCOORD_2":52,
						"TEXCOORD_3":53,
						"TEXCOORD_4":54
					},
					"indices":55,
					"material":0
				}
			]
		}
	],
	"textures":[
		{
			"sampler":0,
			"source":0
		},
		{
			"sampler":0,
			"source":1
		},
		{
			"sampler":0,
			"source":2
		}
	],
	"images":[
		{
			"mimeType":"image/png",
			"name":"Image_2",
			"uri":"textures/Image_2.png"
		},
		{
			"mimeType":"image/png",
			"name":"Image_0",
			"uri":"textures/Image_0.png"
		},
		{
			"mimeType":"image/png",
			"name":"Image_1",
			"uri":"textures/Image_1.png"
		}
	],
	"accessors":[
		{
			"bufferView":0,
			"componentType":5126,
			"count":7031,
			"max":[
				1.1878700256347656,
				1.1878688335418701,
				1.0779894590377808
			],
			"min":[
				-1.1878700256347656,
				-1.245192050933838,
				-1.3492827415466309
			],
			"type":"VEC3"
		},
		{
			"bufferView":1,
			"componentType":5126,
			"count":7031,
			"type":"VEC3"
		},
		{
			"bufferView":2,
			"componentType":5126,
			"count":7031,
			"type":"VEC2"
		},
		{
			"bufferView":3,
			"componentType":5126,
			"count":7031,
			"type":"VEC2"
		},
		{
			"bufferView":4,
			"componentType":5126,
			"count":7031,
			"type":"VEC2"
		},
		{
			"bufferView":5,
			"componentType":5126,
			"count":7031,
			"type":"VEC2"
		},
		{
			"bufferView":6,
			"componentType":5126,
			"count":7031,
			"type":"VEC2"
		},
		{
			"bufferView":7,
			"componentType":5123,
			"count":17094,
			"type":"SCALAR"
		},
		{
			"bufferView":8,
			"componentType":5126,
			"count":1865,
			"max":[
				0.801344633102417,
				1.2418650388717651,
				0.8013441562652588
			],
			"min":[
				-0.801344633102417,
				0.8502740859985352,
				-0.8013445138931274
			],
			"type":"VEC3"
		},
		{
			"bufferView":9,
			"componentType":5126,
			"count":1865,
			"type":"VEC3"
		},
		{
			"bufferView":10,
			"componentType":5126,
			"count":1865,
			"type":"VEC2"
		},
		{
			"bufferView":11,
			"componentType":5126,
			"count":1865,
			"type":"VEC2"
		},
		{
			"bufferView":12,
			"componentType":5126,
			"count":1865,
			"type":"VEC2"
		},
		{
			"bufferView":13,
			"componentType":5126,
			"count":1865,
			"type":"VEC2"
		},
		{
			"bufferView":14,
			"componentType":5126,
			"count":1865,
			"type":"VEC2"
		},
		{
			"bufferView":15,
			"componentType":5123,
			"count":4902,
			"type":"SCALAR"
		},
		{
			"bufferView":16,
			"componentType":5126,
			"count":1528,
			"max":[
				0.7558897137641907,
				0.7558895945549011,
				1.2995729446411133
			],
			"min":[
				-0.7558892369270325,
				-0.7558899521827698,
				0.9172853827476501
			],
			"type":"VEC3"
		},
		{
			"bufferView":17,
			"componentType":5126,
			"count":1528,
			"type":"VEC3"
		},
		{
			"bufferView":18,
			"componentType":5126,
			"count":1528,
			"type":"VEC2"
		},
		{
			"bufferView":19,
			"componentType":5126,
			"count":1528,
			"type":"VEC2"
		},
		{
			"bufferView":20,
			"componentType":5126,
			"count":1528,
			"type":"VEC2"
		},
		{
			"bufferView":21,
			"componentType":5126,
			"count":1528,
			"type":"VEC2"
		},
		{
			"bufferView":22,
			"componentType":5126,
			"count":1528,
			"type":"VEC2"
		},
		{
			"bufferView":23,
			"componentType":5123,
			"count":2802,
			"type":"SCALAR"
		},
		{
			"bufferView":24,
			"componentType":5126,
			"count":2296,
			"max":[
				2.970630168914795,
				0.34075433015823364,
				0.6671300530433655
			],
			"min":[
				-2.970630168914795,
				-0.3407544195652008,
				-0.6671300530433655
			],
			"type":"VEC3"
		},
		{
			"bufferView":25,
			"componentType":5126,
			"count":2296,
			"type":"VEC3"
		},
		{
			"bufferView":26,
			"componentType":5126,
			"count":2296,
			"type":"VEC2"
		},
		{
			"bufferView":27,
			"componentType":5126,
			"count":2296,
			"type":"VEC2"
		},
		{
			"bufferView":28,
			"componentType":5126,
			"count":2296,
			"type":"VEC2"
		},
		{
			"bufferView":29,
			"componentType":5126,
			"count":2296,
			"type":"VEC2"
		},
		{
			"bufferView":30,
			"componentType":5126,
			"count":2296,
			"type":"VEC2"
		},
		{
			"bufferView":31,
			"componentType":5123,
			"count":6048,
			"type":"SCALAR"
		},
		{
			"bufferView":32,
			"componentType":5126,
			"count":7434,
			"max":[
				3.358049154281616,
				0.8249838948249817,
				0.9548195004463196
			],
			"min":[
				-3.358049154281616,
				-0.8249838948249817,
				-0.9548195004463196
			],
			"type":"VEC3"
		},
		{
			"bufferView":33,
			"componentType":5126,
			"count":7434,
			"type":"VEC3"
		},
		{
			"bufferView":34,
			"componentType":5126,
			"count":7434,
			"type":"VEC2"
		},
		{
			"bufferView":35,
			"componentType":5126,
			"count":7434,
			"type":"VEC2"
		},
		{
			"bufferView":36,
			"componentType":5126,
			"count":7434,
			"type":"VEC2"
		},
		{
			"bufferView":37,
			"componentType":5126,
			"count":7434,
			"type":"VEC2"
		},
		{
			"bufferView":38,
			"componentType":5126,
			"count":7434,
			"type":"VEC2"
		},
		{
			"bufferView":39,
			"componentType":5123,
			"count":17280,
			"type":"SCALAR"
		},
		{
			"bufferView":40,
			"componentType":5126,
			"count":27782,
			"max":[
				0.37368136644363403,
				4.132318496704102,
				3.699125051498413
			],
			"min":[
				-6.313080310821533,
				-4.132318496704102,
				-3.699125051498413
			],
			"type":"VEC3"
		},
		{
			"bufferView":41,
			"componentType":5126,
			"count":27782,
			"type":"VEC3"
		},
		{
			"bufferView":42,
			"componentType":5126,
			"count":27782,
			"type":"VEC2"
		},
		{
			"bufferView":43,
			"componentType":5126,
			"count":27782,
			"type":"VEC2"
		},
		{
			"bufferView":44,
			"componentType":5126,
			"count":27782,
			"type":"VEC2"
		},
		{
			"bufferView":45,
			"componentType":5126,
			"count":27782,
			"type":"VEC2"
		},
		{
			"bufferView":46,
			"componentType":5126,
			"count":27782,
			"type":"VEC2"
		},
		{
			"bufferView":47,
			"componentType":5123,
			"count":56112,
			"type":"SCALAR"
		},
		{
			"bufferView":48,
			"componentType":5126,
			"count":50712,
			"max":[
				0.19335845112800598,
				2.8340985774993896,
				2.867443799972534
			],
			"min":[
				-6.132757186889648,
				-2.8340985774993896,
				-2.867443799972534
			],
			"type":"VEC3"
		},
		{
			"bufferView":49,
			"componentType":5126,
			"count":50712,
			"type":"VEC3"
		},
		{
			"bufferView":50,
			"componentType":5126,
			"count":50712,
			"type":"VEC2"
		},
		{
			"bufferView":51,
			"componentType":5126,
			"count":50712,
			"type":"VEC2"
		},
		{
			"bufferView":52,
			"componentType":5126,
			"count":50712,
			"type":"VEC2"
		},
		{
			"bufferView":53,
			"componentType":5126,
			"count":50712,
			"type":"VEC2"
		},
		{
			"bufferView":54,
			"componentType":5126,
			"count":50712,
			"type":"VEC2"
		},
		{
			"bufferView":55,
			"componentType":5123,
			"count":116364,
			"type":"SCALAR"
		}
	],
	"bufferViews":[
		{
			"buffer":0,
			"byteLength":84372,
			"byteOffset":0,
			"target":34962
		},
		{
			"buffer":0,
			"byteLength":84372,
			"byteOffset":84372,
			"target":34962
		},
		{
			"buffer":0,
			"byteLength":56248,
			"byteOffset":168744,
			"target":34962
		},
		{
			"buffer":0,
			"byteLength":56248,
			"byteOffset":224992,
			"target":34962
		},
		{
			"buffer":0,
			"byteLength":56248,
			"byteOffset":281240,
			"target":34962
		},
		{
			"buffer":0,
			"byteLength":56248,
			"byteOffset":337488,
			"target":34962
		},
		{
			"buffer":0,
			"byteLength":56248,
			"byteOffset":393736,
			"target":34962
		},
		{
			"buffer":0,
			"byteLength":34188,
			"byteOffset":449984,
			"target":34963
		},
		{
			"buffer":0,
			"byteLength":22380,
			"byteOffset":484172,
			"target":34962
		},
		{
			"buffer":0,
			"byteLength":22380,
			"byteOffset":506552,
			"target":34962
		},
		{
			"buffer":0,
			"byteLength":14920,
			"byteOffset":528932,
			"target":34962
		},
		{
			"buffer":0,
			"byteLength":14920,
			"byteOffset":543852,
			"target":34962
		},
		{
			"buffer":0,
			"byteLength":14920,
			"byteOffset":558772,
			"target":34962
		},
		{
			"buffer":0,
			"byteLength":14920,
			"byteOffset":573692,
			"target":34962
		},
		{
			"buffer":0,
			"byteLength":14920,
			"byteOffset":588612,
			"target":34962
		},
		{
			"buffer":0,
			"byteLength":9804,
			"byteOffset":603532,
			"target":34963
		},
		{
			"buffer":0,
			"byteLength":18336,
			"byteOffset":613336,
			"target":34962
		},
		{
			"buffer":0,
			"byteLength":18336,
			"byteOffset":631672,
			"target":34962
		},
		{
			"buffer":0,
			"byteLength":12224,
			"byteOffset":650008,
			"target":34962
		},
		{
			"buffer":0,
			"byteLength":12224,
			"byteOffset":662232,
			"target":34962
		},
		{
			"buffer":0,
			"byteLength":12224,
			"byteOffset":674456,
			"target":34962
		},
		{
			"buffer":0,
			"byteLength":12224,
			"byteOffset":686680,
			"target":34962
		},
		{
			"buffer":0,
			"byteLength":12224,
			"byteOffset":698904,
			"target":34962
		},
		{
			"buffer":0,
			"byteLength":5604,
			"byteOffset":711128,
			"target":34963
		},
		{
			"buffer":0,
			"byteLength":27552,
			"byteOffset":716732,
			"target":34962
		},
		{
			"buffer":0,
			"byteLength":27552,
			"byteOffset":744284,
			"target":34962
		},
		{
			"buffer":0,
			"byteLength":18368,
			"byteOffset":771836,
			"target":34962
		},
		{
			"buffer":0,
			"byteLength":18368,
			"byteOffset":790204,
			"target":34962
		},
		{
			"buffer":0,
			"byteLength":18368,
			"byteOffset":808572,
			"target":34962
		},
		{
			"buffer":0,
			"byteLength":18368,
			"byteOffset":826940,
			"target":34962
		},
		{
			"buffer":0,
			"byteLength":18368,
			"byteOffset":845308,
			"target":34962
		},
		{
			"buffer":0,
			"byteLength":12096,
			"byteOffset":863676,
			"target":34963
		},
		{
			"buffer":0,
			"byteLength":89208,
			"byteOffset":875772,
			"target":34962
		},
		{
			"buffer":0,
			"byteLength":89208,
			"byteOffset":964980,
			"target":34962
		},
		{
			"buffer":0,
			"byteLength":59472,
			"byteOffset":1054188,
			"target":34962
		},
		{
			"buffer":0,
			"byteLength":59472,
			"byteOffset":1113660,
			"target":34962
		},
		{
			"buffer":0,
			"byteLength":59472,
			"byteOffset":1173132,
			"target":34962
		},
		{
			"buffer":0,
			"byteLength":59472,
			"byteOffset":1232604,
			"target":34962
		},
		{
			"buffer":0,
			"byteLength":59472,
			"byteOffset":1292076,
			"target":34962
		},
		{
			"buffer":0,
			"byteLength":34560,
			"byteOffset":1351548,
			"target":34963
		},
		{
			"buffer":0,
			"byteLength":333384,
			"byteOffset":1386108,
			"target":34962
		},
		{
			"buffer":0,
			"byteLength":333384,
			"byteOffset":1719492,
			"target":34962
		},
		{
			"buffer":0,
			"byteLength":222256,
			"byteOffset":2052876,
			"target":34962
		},
		{
			"buffer":0,
			"byteLength":222256,
			"byteOffset":2275132,
			"target":34962
		},
		{
			"buffer":0,
			"byteLength":222256,
			"byteOffset":2497388,
			"target":34962
		},
		{
			"buffer":0,
			"byteLength":222256,
			"byteOffset":2719644,
			"target":34962
		},
		{
			"buffer":0,
			"byteLength":222256,
			"byteOffset":2941900,
			"target":34962
		},
		{
			"buffer":0,
			"byteLength":112224,
			"byteOffset":3164156,
			"target":34963
		},
		{
			"buffer":0,
			"byteLength":608544,
			"byteOffset":3276380,
			"target":34962
		},
		{
			"buffer":0,
			"byteLength":608544,
			"byteOffset":3884924,
			"target":34962
		},
		{
			"buffer":0,
			"byteLength":405696,
			"byteOffset":4493468,
			"target":34962
		},
		{
			"buffer":0,
			"byteLength":405696,
			"byteOffset":4899164,
			"target":34962
		},
		{
			"buffer":0,
			"byteLength":405696,
			"byteOffset":5304860,
			"target":34962
		},
		{
			"buffer":0,
			"byteLength":405696,
			"byteOffset":5710556,
			"target":34962
		},
		{
			"buffer":0,
			"byteLength":405696,
			"byteOffset":6116252,
			"target":34962
		},
		{
			"buffer":0,
			"byteLength":232728,
			"byteOffset":6521948,
			"target":34963
		}
	],
	"samplers":[
		{
			"magFilter":9729,
			"minFilter":9987
		}
	],
	"buffers":[
		{
			"byteLength":6754676,
			"uri":"tie_fighter.bin"
		}
	]
}
